<?xml version="1.0" encoding="UTF-8"?>
<svg id="Layer_1" xmlns="http://www.w3.org/2000/svg" version="1.1" viewBox="0 0 136.3 167.7">
  <!-- Generator: Adobe Illustrator 29.5.1, SVG Export Plug-In . SVG Version: 2.1.0 Build 141)  -->
  <path d="M94.4,21.1c.5.2.3,1.6-.6,3.4-1.7,3-3.9,5.6-5.9,8.5-6.4,8.7-12.4,16.8-15.1,27.1-5.8,20.4-10.4,41-16.6,61.3-1.5,3.4-2.4,11.2-6.2,12.1-1.1.1-2-1-2.3-2.7-.4-6.4,1.3-13,2.5-19.2,2.5-13.8,7.7-27.1,13-39.9,3.7-9.6,10.2-18.7,9.9-29.3-.8-11-14.3,2.8-17.6,6-2.8,3.1-5.2,6.4-7,9.7-1.1,1.8-2.8,6.3-5.3,5-2.3-2.9,3-7.8,4.6-10.3,3.5-4.6,6.6-8.6,11-12.3,3.9-3,11.9-10.5,16.5-5.5,1.3,1.5,1.5,3.9,1.8,5.7.2.5.2,1.2.8,1.1.9-.2,2.8-3.5,4.6-6.1,2.6-3.7,5.5-7.2,8-11,1-1.3,2.2-3.5,3.8-3.7h0ZM67.6,67.8c-.7.6-1.6,3.1-2.1,4.3-3.7,10.2-8.1,20.2-10.5,30.8-1.2,5.6-2.4,11.2-3.1,16.8-.1.9-.3,3.2.1,3.5.6,0,1.2-1.9,1.5-2.7,1.3-3.9,2.4-8.1,3.6-12,2.8-9.1,5-18.4,7.3-27.6.9-3.8,2.9-11.3,2.9-11.3,0,0,.3-1.7.2-1.8h0Z"/>
  <path d="M109.8,46.4c2.7,1.8-4.6,5.1-5.9,6.4-1.4,1.1-2.9,2.5-4.3,3.8-6.1,5.4-11.3,12-15.4,19.1-1.1,2-3.2,6-.1,6.9,6.1.8,13.2-4.3,19.1-6,7.6-1.8,8.5,4.2,5.1,9.3-2,3.4-4.6,6.5-7.4,9.3-5.5,5.6-10.6,11.4-15.8,17.5-11.1,13.1-21.2,27.2-30.4,41.7-2.1,2.9-5,2.3-3.6-1.2,1.3-2.9,3.9-4.9,5.8-7.6,1.9-2.6,3.6-5.4,5.5-8,8.9-12.4,18.6-25,28.9-36.4,4.2-4.6,8.5-9.5,11.9-14.7.9-1.4,1.4-2.7,1.4-3.6-.4-5.6-19.9,8.9-25.8,2.9-4.2-4.2,3.1-11.7,5.2-15.8,3.7-6.1,8.4-11.1,13.8-16.2,3.1-2.6,7.8-8.3,12.1-7.5h0Z"/>
</svg>